<svg width="227" height="20" viewBox="0 0 227 20" fill="none" xmlns="http://www.w3.org/2000/svg">
<mask id="path-1-outside-1" maskUnits="userSpaceOnUse" x="0.735992" y="0.0559692" width="226" height="20" fill="black">
<rect fill="white" x="0.735992" y="0.0559692" width="226" height="20"/>
<path d="M13.616 16.464V18H1.73599V1.19997H13.256V2.73597H3.51199V8.71197H12.2V10.224H3.51199V16.464H13.616Z"/>
<path d="M22.9747 2.73597H17.0707V1.19997H30.6547V2.73597H24.7507V18H22.9747V2.73597Z"/>
<path d="M47.2919 16.464V18H35.4119V1.19997H46.9319V2.73597H37.1879V8.71197H45.8759V10.224H37.1879V16.464H47.2919Z"/>
<path d="M70.8346 1.19997V18H69.1306V4.55997L62.5306 15.864H61.6906L55.0906 4.63197V18H53.3866V1.19997H54.8506L62.1466 13.656L69.3706 1.19997H70.8346Z"/>
<path d="M91.6377 10.104L88.2057 13.584V18H86.4297V1.19997H88.2057V11.352L98.0697 1.19997H100.11L92.8377 8.80797L100.614 18H98.5017L91.6377 10.104Z"/>
<path d="M112.147 18.144C110.483 18.144 108.971 17.776 107.611 17.04C106.267 16.288 105.211 15.264 104.443 13.968C103.691 12.672 103.315 11.216 103.315 9.59997C103.315 7.98397 103.691 6.52797 104.443 5.23197C105.211 3.93597 106.267 2.91997 107.611 2.18397C108.971 1.43197 110.483 1.05597 112.147 1.05597C113.811 1.05597 115.307 1.42397 116.635 2.15997C117.979 2.89597 119.035 3.91997 119.803 5.23197C120.571 6.52797 120.955 7.98397 120.955 9.59997C120.955 11.216 120.571 12.68 119.803 13.992C119.035 15.288 117.979 16.304 116.635 17.04C115.307 17.776 113.811 18.144 112.147 18.144ZM112.147 16.56C113.475 16.56 114.675 16.264 115.747 15.672C116.819 15.064 117.659 14.232 118.267 13.176C118.875 12.104 119.179 10.912 119.179 9.59997C119.179 8.28797 118.875 7.10397 118.267 6.04797C117.659 4.97597 116.819 4.14397 115.747 3.55197C114.675 2.94397 113.475 2.63997 112.147 2.63997C110.819 2.63997 109.611 2.94397 108.523 3.55197C107.451 4.14397 106.603 4.97597 105.979 6.04797C105.371 7.10397 105.067 8.28797 105.067 9.59997C105.067 10.912 105.371 12.104 105.979 13.176C106.603 14.232 107.451 15.064 108.523 15.672C109.611 16.264 110.819 16.56 112.147 16.56Z"/>
<path d="M131.488 18.144C130.24 18.144 129.04 17.944 127.888 17.544C126.752 17.144 125.872 16.616 125.248 15.96L125.944 14.592C126.552 15.2 127.36 15.696 128.368 16.08C129.376 16.448 130.416 16.632 131.488 16.632C132.992 16.632 134.12 16.36 134.872 15.816C135.624 15.256 136 14.536 136 13.656C136 12.984 135.792 12.448 135.376 12.048C134.976 11.648 134.48 11.344 133.888 11.136C133.296 10.912 132.472 10.672 131.416 10.416C130.152 10.096 129.144 9.79197 128.392 9.50397C127.64 9.19997 126.992 8.74397 126.448 8.13597C125.92 7.52797 125.656 6.70397 125.656 5.66397C125.656 4.81597 125.88 4.04797 126.328 3.35997C126.776 2.65597 127.464 2.09597 128.392 1.67997C129.32 1.26397 130.472 1.05597 131.848 1.05597C132.808 1.05597 133.744 1.19197 134.656 1.46397C135.584 1.71997 136.384 2.07997 137.056 2.54397L136.456 3.95997C135.752 3.49597 135 3.15197 134.2 2.92797C133.4 2.68797 132.616 2.56797 131.848 2.56797C130.376 2.56797 129.264 2.85597 128.512 3.43197C127.776 3.99197 127.408 4.71997 127.408 5.61597C127.408 6.28797 127.608 6.83197 128.008 7.24797C128.424 7.64797 128.936 7.95997 129.544 8.18397C130.168 8.39197 131 8.62397 132.04 8.87997C133.272 9.18397 134.264 9.48797 135.016 9.79197C135.784 10.08 136.432 10.528 136.96 11.136C137.488 11.728 137.752 12.536 137.752 13.56C137.752 14.408 137.52 15.184 137.056 15.888C136.608 16.576 135.912 17.128 134.968 17.544C134.024 17.944 132.864 18.144 131.488 18.144Z"/>
<path d="M155.421 16.464V18H143.541V1.19997H155.061V2.73597H145.317V8.71197H154.005V10.224H145.317V16.464H155.421Z"/>
<path d="M175.556 1.19997V18H174.092L163.292 4.36797V18H161.516V1.19997H162.98L173.804 14.832V1.19997H175.556Z"/>
<path d="M190.255 18.144C188.591 18.144 187.087 17.776 185.743 17.04C184.415 16.304 183.367 15.288 182.599 13.992C181.847 12.68 181.471 11.216 181.471 9.59997C181.471 7.98397 181.847 6.52797 182.599 5.23197C183.367 3.91997 184.423 2.89597 185.767 2.15997C187.111 1.42397 188.615 1.05597 190.279 1.05597C191.527 1.05597 192.679 1.26397 193.735 1.67997C194.791 2.09597 195.687 2.70397 196.423 3.50397L195.295 4.63197C193.983 3.30397 192.327 2.63997 190.327 2.63997C188.999 2.63997 187.791 2.94397 186.703 3.55197C185.615 4.15997 184.759 4.99197 184.135 6.04797C183.527 7.10397 183.223 8.28797 183.223 9.59997C183.223 10.912 183.527 12.096 184.135 13.152C184.759 14.208 185.615 15.04 186.703 15.648C187.791 16.256 188.999 16.56 190.327 16.56C192.343 16.56 193.999 15.888 195.295 14.544L196.423 15.672C195.687 16.472 194.783 17.088 193.711 17.52C192.655 17.936 191.503 18.144 190.255 18.144Z"/>
<path d="M202.129 1.19997H203.905V18H202.129V1.19997Z"/>
<path d="M223.124 9.59997H224.828V16.008C224.044 16.696 223.116 17.224 222.044 17.592C220.972 17.96 219.844 18.144 218.66 18.144C216.98 18.144 215.468 17.776 214.124 17.04C212.78 16.304 211.724 15.288 210.956 13.992C210.188 12.68 209.804 11.216 209.804 9.59997C209.804 7.98397 210.188 6.52797 210.956 5.23197C211.724 3.91997 212.78 2.89597 214.124 2.15997C215.468 1.42397 216.988 1.05597 218.684 1.05597C219.964 1.05597 221.14 1.26397 222.212 1.67997C223.284 2.07997 224.188 2.67997 224.924 3.47997L223.82 4.60797C222.492 3.29597 220.804 2.63997 218.756 2.63997C217.396 2.63997 216.164 2.94397 215.06 3.55197C213.972 4.14397 213.116 4.97597 212.492 6.04797C211.868 7.10397 211.556 8.28797 211.556 9.59997C211.556 10.912 211.868 12.096 212.492 13.152C213.116 14.208 213.972 15.04 215.06 15.648C216.148 16.256 217.372 16.56 218.732 16.56C220.46 16.56 221.924 16.128 223.124 15.264V9.59997Z"/>
</mask>
<path d="M13.616 16.464V18H1.73599V1.19997H13.256V2.73597H3.51199V8.71197H12.2V10.224H3.51199V16.464H13.616Z" stroke="black" stroke-width="2" mask="url(#path-1-outside-1)"/>
<path d="M22.9747 2.73597H17.0707V1.19997H30.6547V2.73597H24.7507V18H22.9747V2.73597Z" stroke="black" stroke-width="2" mask="url(#path-1-outside-1)"/>
<path d="M47.2919 16.464V18H35.4119V1.19997H46.9319V2.73597H37.1879V8.71197H45.8759V10.224H37.1879V16.464H47.2919Z" stroke="black" stroke-width="2" mask="url(#path-1-outside-1)"/>
<path d="M70.8346 1.19997V18H69.1306V4.55997L62.5306 15.864H61.6906L55.0906 4.63197V18H53.3866V1.19997H54.8506L62.1466 13.656L69.3706 1.19997H70.8346Z" stroke="black" stroke-width="2" mask="url(#path-1-outside-1)"/>
<path d="M91.6377 10.104L88.2057 13.584V18H86.4297V1.19997H88.2057V11.352L98.0697 1.19997H100.11L92.8377 8.80797L100.614 18H98.5017L91.6377 10.104Z" stroke="black" stroke-width="2" mask="url(#path-1-outside-1)"/>
<path d="M112.147 18.144C110.483 18.144 108.971 17.776 107.611 17.04C106.267 16.288 105.211 15.264 104.443 13.968C103.691 12.672 103.315 11.216 103.315 9.59997C103.315 7.98397 103.691 6.52797 104.443 5.23197C105.211 3.93597 106.267 2.91997 107.611 2.18397C108.971 1.43197 110.483 1.05597 112.147 1.05597C113.811 1.05597 115.307 1.42397 116.635 2.15997C117.979 2.89597 119.035 3.91997 119.803 5.23197C120.571 6.52797 120.955 7.98397 120.955 9.59997C120.955 11.216 120.571 12.68 119.803 13.992C119.035 15.288 117.979 16.304 116.635 17.04C115.307 17.776 113.811 18.144 112.147 18.144ZM112.147 16.56C113.475 16.56 114.675 16.264 115.747 15.672C116.819 15.064 117.659 14.232 118.267 13.176C118.875 12.104 119.179 10.912 119.179 9.59997C119.179 8.28797 118.875 7.10397 118.267 6.04797C117.659 4.97597 116.819 4.14397 115.747 3.55197C114.675 2.94397 113.475 2.63997 112.147 2.63997C110.819 2.63997 109.611 2.94397 108.523 3.55197C107.451 4.14397 106.603 4.97597 105.979 6.04797C105.371 7.10397 105.067 8.28797 105.067 9.59997C105.067 10.912 105.371 12.104 105.979 13.176C106.603 14.232 107.451 15.064 108.523 15.672C109.611 16.264 110.819 16.56 112.147 16.56Z" stroke="black" stroke-width="2" mask="url(#path-1-outside-1)"/>
<path d="M131.488 18.144C130.24 18.144 129.04 17.944 127.888 17.544C126.752 17.144 125.872 16.616 125.248 15.96L125.944 14.592C126.552 15.2 127.36 15.696 128.368 16.08C129.376 16.448 130.416 16.632 131.488 16.632C132.992 16.632 134.12 16.36 134.872 15.816C135.624 15.256 136 14.536 136 13.656C136 12.984 135.792 12.448 135.376 12.048C134.976 11.648 134.48 11.344 133.888 11.136C133.296 10.912 132.472 10.672 131.416 10.416C130.152 10.096 129.144 9.79197 128.392 9.50397C127.64 9.19997 126.992 8.74397 126.448 8.13597C125.92 7.52797 125.656 6.70397 125.656 5.66397C125.656 4.81597 125.88 4.04797 126.328 3.35997C126.776 2.65597 127.464 2.09597 128.392 1.67997C129.32 1.26397 130.472 1.05597 131.848 1.05597C132.808 1.05597 133.744 1.19197 134.656 1.46397C135.584 1.71997 136.384 2.07997 137.056 2.54397L136.456 3.95997C135.752 3.49597 135 3.15197 134.2 2.92797C133.4 2.68797 132.616 2.56797 131.848 2.56797C130.376 2.56797 129.264 2.85597 128.512 3.43197C127.776 3.99197 127.408 4.71997 127.408 5.61597C127.408 6.28797 127.608 6.83197 128.008 7.24797C128.424 7.64797 128.936 7.95997 129.544 8.18397C130.168 8.39197 131 8.62397 132.04 8.87997C133.272 9.18397 134.264 9.48797 135.016 9.79197C135.784 10.08 136.432 10.528 136.96 11.136C137.488 11.728 137.752 12.536 137.752 13.56C137.752 14.408 137.52 15.184 137.056 15.888C136.608 16.576 135.912 17.128 134.968 17.544C134.024 17.944 132.864 18.144 131.488 18.144Z" stroke="black" stroke-width="2" mask="url(#path-1-outside-1)"/>
<path d="M155.421 16.464V18H143.541V1.19997H155.061V2.73597H145.317V8.71197H154.005V10.224H145.317V16.464H155.421Z" stroke="black" stroke-width="2" mask="url(#path-1-outside-1)"/>
<path d="M175.556 1.19997V18H174.092L163.292 4.36797V18H161.516V1.19997H162.98L173.804 14.832V1.19997H175.556Z" stroke="black" stroke-width="2" mask="url(#path-1-outside-1)"/>
<path d="M190.255 18.144C188.591 18.144 187.087 17.776 185.743 17.04C184.415 16.304 183.367 15.288 182.599 13.992C181.847 12.68 181.471 11.216 181.471 9.59997C181.471 7.98397 181.847 6.52797 182.599 5.23197C183.367 3.91997 184.423 2.89597 185.767 2.15997C187.111 1.42397 188.615 1.05597 190.279 1.05597C191.527 1.05597 192.679 1.26397 193.735 1.67997C194.791 2.09597 195.687 2.70397 196.423 3.50397L195.295 4.63197C193.983 3.30397 192.327 2.63997 190.327 2.63997C188.999 2.63997 187.791 2.94397 186.703 3.55197C185.615 4.15997 184.759 4.99197 184.135 6.04797C183.527 7.10397 183.223 8.28797 183.223 9.59997C183.223 10.912 183.527 12.096 184.135 13.152C184.759 14.208 185.615 15.04 186.703 15.648C187.791 16.256 188.999 16.56 190.327 16.56C192.343 16.56 193.999 15.888 195.295 14.544L196.423 15.672C195.687 16.472 194.783 17.088 193.711 17.52C192.655 17.936 191.503 18.144 190.255 18.144Z" stroke="black" stroke-width="2" mask="url(#path-1-outside-1)"/>
<path d="M202.129 1.19997H203.905V18H202.129V1.19997Z" stroke="black" stroke-width="2" mask="url(#path-1-outside-1)"/>
<path d="M223.124 9.59997H224.828V16.008C224.044 16.696 223.116 17.224 222.044 17.592C220.972 17.96 219.844 18.144 218.66 18.144C216.98 18.144 215.468 17.776 214.124 17.04C212.78 16.304 211.724 15.288 210.956 13.992C210.188 12.68 209.804 11.216 209.804 9.59997C209.804 7.98397 210.188 6.52797 210.956 5.23197C211.724 3.91997 212.78 2.89597 214.124 2.15997C215.468 1.42397 216.988 1.05597 218.684 1.05597C219.964 1.05597 221.14 1.26397 222.212 1.67997C223.284 2.07997 224.188 2.67997 224.924 3.47997L223.82 4.60797C222.492 3.29597 220.804 2.63997 218.756 2.63997C217.396 2.63997 216.164 2.94397 215.06 3.55197C213.972 4.14397 213.116 4.97597 212.492 6.04797C211.868 7.10397 211.556 8.28797 211.556 9.59997C211.556 10.912 211.868 12.096 212.492 13.152C213.116 14.208 213.972 15.04 215.06 15.648C216.148 16.256 217.372 16.56 218.732 16.56C220.46 16.56 221.924 16.128 223.124 15.264V9.59997Z" stroke="black" stroke-width="2" mask="url(#path-1-outside-1)"/>
</svg>
